<svg width="24" height="24" viewBox="0 0 24 24" fill="none" xmlns="http://www.w3.org/2000/svg">
<g clip-path="url(#clip0_190_2014)">
<mask id="mask0_190_2014" style="mask-type:alpha" maskUnits="userSpaceOnUse" x="2" y="-1" width="20" height="25">
<path d="M16.7729 0.0118884C16.7219 -0.0451115 14.8844 0.0343885 13.2854 1.76989C11.6864 3.50389 11.9324 5.49289 11.9684 5.54389C12.0044 5.59489 14.2484 5.67439 15.6809 3.65689C17.1134 1.63939 16.8239 0.0703885 16.7729 0.0118884ZM21.7439 17.6114C21.6719 17.4674 18.2564 15.7604 18.5744 12.4784C18.8924 9.19489 21.0869 8.29489 21.1214 8.19739C21.1559 8.09989 20.2259 7.01239 19.2404 6.46189C18.5168 6.07377 17.716 5.8514 16.8959 5.81089C16.7339 5.80639 16.1714 5.66839 15.0149 5.98489C14.2529 6.19339 12.5354 6.86839 12.0629 6.89539C11.5889 6.92239 10.1789 6.11239 8.66239 5.89789C7.69189 5.71039 6.66289 6.09439 5.92639 6.38989C5.19139 6.68389 3.79339 7.52089 2.81539 9.74539C1.83739 11.9684 2.34889 15.4904 2.71489 16.5854C3.08089 17.6789 3.65239 19.4714 4.62439 20.7794C5.48839 22.2554 6.63439 23.2799 7.11289 23.6279C7.59139 23.9759 8.94139 24.2069 9.87739 23.7284C10.6304 23.2664 11.9894 23.0009 12.5264 23.0204C13.0619 23.0399 14.1179 23.2514 15.1994 23.8289C16.0559 24.1244 16.8659 24.0014 17.6774 23.6714C18.4889 23.3399 19.6634 22.0829 21.0344 19.5344C21.5549 18.3494 21.7919 17.7089 21.7439 17.6114Z" fill="#006FFD"/>
<path d="M16.7729 0.0118884C16.7219 -0.0451115 14.8844 0.0343885 13.2854 1.76989C11.6864 3.50389 11.9324 5.49289 11.9684 5.54389C12.0044 5.59489 14.2484 5.67439 15.6809 3.65689C17.1134 1.63939 16.8239 0.0703885 16.7729 0.0118884ZM21.7439 17.6114C21.6719 17.4674 18.2564 15.7604 18.5744 12.4784C18.8924 9.19489 21.0869 8.29489 21.1214 8.19739C21.1559 8.09989 20.2259 7.01239 19.2404 6.46189C18.5168 6.07377 17.716 5.8514 16.8959 5.81089C16.7339 5.80639 16.1714 5.66839 15.0149 5.98489C14.2529 6.19339 12.5354 6.86839 12.0629 6.89539C11.5889 6.92239 10.1789 6.11239 8.66239 5.89789C7.69189 5.71039 6.66289 6.09439 5.92639 6.38989C5.19139 6.68389 3.79339 7.52089 2.81539 9.74539C1.83739 11.9684 2.34889 15.4904 2.71489 16.5854C3.08089 17.6789 3.65239 19.4714 4.62439 20.7794C5.48839 22.2554 6.63439 23.2799 7.11289 23.6279C7.59139 23.9759 8.94139 24.2069 9.87739 23.7284C10.6304 23.2664 11.9894 23.0009 12.5264 23.0204C13.0619 23.0399 14.1179 23.2514 15.1994 23.8289C16.0559 24.1244 16.8659 24.0014 17.6774 23.6714C18.4889 23.3399 19.6634 22.0829 21.0344 19.5344C21.5549 18.3494 21.7919 17.7089 21.7439 17.6114Z" fill="#006FFD"/>
</mask>
<g mask="url(#mask0_190_2014)">
<rect x="0.00195312" width="24" height="24" fill="#006FFD"/>
</g>
</g>
<defs>
<clipPath id="clip0_190_2014">
<rect width="24" height="24" fill="white"/>
</clipPath>
</defs>
</svg>
