<svg width="24" height="24" viewBox="0 0 24 24" fill="none" xmlns="http://www.w3.org/2000/svg">
<path d="M12 8.85669C9.9675 8.85669 8.25 10.5742 8.25 12.6067C8.25 14.6392 9.9675 16.3567 12 16.3567C14.0325 16.3567 15.75 14.6392 15.75 12.6067C15.75 10.5742 14.0325 8.85669 12 8.85669Z" fill="currentColor"/>
<path d="M21.6 4.20669H18.4968L15.2484 0.958291C15.1372 0.84664 15.0049 0.758094 14.8593 0.697752C14.7137 0.63741 14.5576 0.606462 14.4 0.606691H9.6C9.44239 0.606462 9.28629 0.63741 9.14068 0.697752C8.99508 0.758094 8.86285 0.84664 8.7516 0.958291L5.5032 4.20669H2.4C1.0764 4.20669 0 5.28309 0 6.60669V19.8067C0 21.1303 1.0764 22.2067 2.4 22.2067H21.6C22.9236 22.2067 24 21.1303 24 19.8067V6.60669C24 5.28309 22.9236 4.20669 21.6 4.20669ZM12 18.6067C8.748 18.6067 6 15.8587 6 12.6067C6 9.35469 8.748 6.60669 12 6.60669C15.252 6.60669 18 9.35469 18 12.6067C18 15.8587 15.252 18.6067 12 18.6067Z" fill="currentColor"/>
</svg>
