<svg width="24" height="24" viewBox="0 0 24 24" fill="none" xmlns="http://www.w3.org/2000/svg">
<path d="M12.0001 1C18.0747 1 22.9988 5.9241 22.9988 11.9987C22.9988 18.0732 18.0747 22.9973 12.0001 22.9973C10.2208 22.9997 8.46767 22.5686 6.89236 21.7413L2.17393 22.9698C2.01627 23.0109 1.85062 23.01 1.69339 22.9674C1.53616 22.9247 1.39281 22.8416 1.27756 22.7265C1.1623 22.6114 1.07914 22.4681 1.0363 22.3109C0.993472 22.1537 0.992461 21.9881 1.03337 21.8304L2.26082 17.113C1.4313 15.536 0.999024 13.7805 1.00148 11.9987C1.00148 5.9241 5.92557 1 12.0001 1Z" fill="currentColor"/>
</svg>
