<svg width="16" height="16" viewBox="0 0 16 16" fill="none" xmlns="http://www.w3.org/2000/svg">
<g clip-path="url(#clip0_190_1935)">
<mask id="mask0_190_1935" style="mask-type:alpha" maskUnits="userSpaceOnUse" x="0" y="0" width="16" height="16">
<path d="M7.39407 0.250926C7.72872 -0.0837231 8.27129 -0.0837234 8.60594 0.250925L10.983 2.62797C11.3176 2.96262 11.3176 3.50519 10.983 3.83984L8.60594 6.21688C8.27129 6.55153 7.72872 6.55153 7.39407 6.21688L5.01702 3.83984C4.68238 3.50519 4.68238 2.96262 5.01702 2.62797L7.39407 0.250926Z" fill="#1F2024"/>
<path d="M15.749 7.39405C16.0837 7.72869 16.0837 8.27127 15.749 8.60592L13.372 10.983C13.0373 11.3176 12.4948 11.3176 12.1601 10.983L9.78307 8.60592C9.44843 8.27127 9.44843 7.72869 9.78307 7.39405L12.1601 5.017C12.4948 4.68235 13.0373 4.68235 13.372 5.017L15.749 7.39405Z" fill="#1F2024"/>
<path d="M7.39407 9.78309C7.72872 9.44844 8.27129 9.44844 8.60594 9.78309L10.983 12.1601C11.3176 12.4948 11.3176 13.0374 10.983 13.372L8.60594 15.749C8.27129 16.0837 7.72872 16.0837 7.39407 15.749L5.01702 13.372C4.68238 13.0374 4.68238 12.4948 5.01702 12.1601L7.39407 9.78309Z" fill="#1F2024"/>
<path d="M6.21694 7.39405C6.55159 7.72869 6.55159 8.27127 6.21694 8.60592L3.8399 10.983C3.50525 11.3176 2.96268 11.3176 2.62803 10.983L0.250987 8.60592C-0.0836621 8.27127 -0.0836623 7.72869 0.250987 7.39405L2.62803 5.017C2.96268 4.68235 3.50525 4.68235 3.8399 5.017L6.21694 7.39405Z" fill="#1F2024"/>
</mask>
<g mask="url(#mask0_190_1935)">
<rect width="16" height="16" fill="#1F2024"/>
</g>
</g>
<defs>
<clipPath id="clip0_190_1935">
<rect width="16" height="16" fill="white"/>
</clipPath>
</defs>
</svg>
