<svg width="24" height="24" viewBox="0 0 24 24" fill="none" xmlns="http://www.w3.org/2000/svg">
<mask id="mask0_190_2040" style="mask-type:alpha" maskUnits="userSpaceOnUse" x="0" y="1" width="24" height="23">
<path fill-rule="evenodd" clip-rule="evenodd" d="M4 5.25C3.58579 5.25 3.25 5.58579 3.25 6V20C3.25 20.4142 3.58579 20.75 4 20.75H18C18.4142 20.75 18.75 20.4142 18.75 20V13C18.75 12.3096 19.3096 11.75 20 11.75C20.6904 11.75 21.25 12.3096 21.25 13V20C21.25 21.7949 19.7949 23.25 18 23.25H4C2.20507 23.25 0.75 21.7949 0.75 20V6C0.75 4.20507 2.20507 2.75 4 2.75H11C11.6904 2.75 12.25 3.30964 12.25 4C12.25 4.69036 11.6904 5.25 11 5.25H4Z" fill="#006FFD"/>
<path d="M13.0947 14.3008L20.2425 7.15297L16.8474 3.75789L9.6996 10.9057C9.6012 11.0042 9.5313 11.1276 9.49732 11.2626L8.70508 15.2953L12.737 14.5031C12.8724 14.4692 12.9962 14.3992 13.0947 14.3008ZM22.55 4.84548C22.8384 4.557 23.0004 4.1658 23.0004 3.75789C23.0004 3.34998 22.8384 2.95877 22.55 2.67029L21.3301 1.4504C21.0416 1.16201 20.6504 1 20.2425 1C19.8346 1 19.4434 1.16201 19.1549 1.4504L17.935 2.67029L21.3301 6.06537L22.55 4.84548Z" fill="#006FFD"/>
</mask>
<g mask="url(#mask0_190_2040)">
<rect width="24" height="24" fill="#006FFD"/>
</g>
</svg>
