<svg width="24" height="24" viewBox="0 0 24 24" fill="none" xmlns="http://www.w3.org/2000/svg">
<path d="M8.14132 20.6086L18.1416 10.6084L13.3916 5.85845L3.3914 15.8587C3.25373 15.9965 3.15593 16.1691 3.10839 16.358L2 22L7.64093 20.8916C7.83033 20.8443 8.00358 20.7463 8.14132 20.6086ZM21.3699 7.38006C21.7733 6.97646 22 6.42914 22 5.85845C22 5.28776 21.7733 4.74044 21.3699 4.33684L19.6632 2.63014C19.2596 2.22666 18.7122 2 18.1416 2C17.5709 2 17.0235 2.22666 16.6199 2.63014L14.9132 4.33684L19.6632 9.08676L21.3699 7.38006Z" fill="currentColor"/>
</svg>
