<svg width="24" height="24" viewBox="0 0 24 24" fill="none" xmlns="http://www.w3.org/2000/svg">
<path fill-rule="evenodd" clip-rule="evenodd" d="M13.5601 0.0604643C13.8038 0.145593 14.0166 0.314856 14.1676 0.543638C14.3187 0.772419 14.4002 1.04879 14.4001 1.33255V7.99967H19.2001C19.4196 7.99956 19.635 8.06635 19.8227 8.19278C20.0104 8.3192 20.1633 8.50042 20.2648 8.7167C20.3662 8.93299 20.4124 9.17605 20.3982 9.41945C20.3839 9.66284 20.3099 9.89724 20.1841 10.0971L11.7841 23.4314C11.6379 23.6641 11.4287 23.8389 11.187 23.9304C10.9452 24.0219 10.6834 24.0253 10.4398 23.94C10.1961 23.8548 9.98335 23.6854 9.83233 23.4565C9.68132 23.2276 9.59998 22.9511 9.60014 22.6673V16.0002H4.80014C4.58064 16.0003 4.36532 15.9335 4.1776 15.8071C3.98989 15.6807 3.83698 15.4994 3.73551 15.2832C3.63405 15.0669 3.58791 14.8238 3.60213 14.5804C3.61635 14.337 3.69037 14.1026 3.81614 13.9027L12.2161 0.568498C12.3626 0.336199 12.5718 0.161821 12.8135 0.0706998C13.0552 -0.0204214 13.3167 -0.0235397 13.5601 0.0617978V0.0604643Z" fill="currentColor"/>
</svg>
