<svg width="24" height="24" viewBox="0 0 24 24" fill="none" xmlns="http://www.w3.org/2000/svg">
<path d="M13.5 12C13.5 12.8297 12.8297 13.5 12 13.5C11.1703 13.5 10.5 12.8297 10.5 12C10.5 11.1703 11.1703 10.5 12 10.5C12.8297 10.5 13.5 11.1703 13.5 12ZM0 12C0 5.37188 5.37188 0 12 0C18.6281 0 24 5.37188 24 12C24 18.6281 18.6281 24 12 24C5.37188 24 0 18.6281 0 12ZM15.2391 14.3766L17.8406 7.6125C18.1922 6.66094 17.2969 5.80781 16.3875 6.15937L9.62344 8.76094C9.225 8.91094 8.91094 9.225 8.76094 9.62344L6.15937 16.3875C5.80781 17.2969 6.66094 18.1922 7.6125 17.8406L14.3766 15.2391C14.775 15.0891 15.0891 14.775 15.2391 14.3766Z" fill="currentColor"/>
</svg>
