<svg width="24" height="24" viewBox="0 0 24 24" fill="none" xmlns="http://www.w3.org/2000/svg">
<mask id="mask0_190_2002" style="mask-type:alpha" maskUnits="userSpaceOnUse" x="0" y="3" width="24" height="18">
<path d="M12 8.72751C11.132 8.72751 10.2996 9.07231 9.68583 9.68607C9.07208 10.2998 8.72727 11.1323 8.72727 12.0002C8.72727 12.8682 9.07208 13.7007 9.68583 14.3144C10.2996 14.9282 11.132 15.273 12 15.273C12.868 15.273 13.7004 14.9282 14.3142 14.3144C14.9279 13.7007 15.2727 12.8682 15.2727 12.0002C15.2727 11.1323 14.9279 10.2998 14.3142 9.68607C13.7004 9.07231 12.868 8.72751 12 8.72751ZM12 17.4548C10.5534 17.4548 9.16598 16.8801 8.14305 15.8572C7.12013 14.8343 6.54545 13.4469 6.54545 12.0002C6.54545 10.5536 7.12013 9.16622 8.14305 8.14329C9.16598 7.12037 10.5534 6.54569 12 6.54569C13.4466 6.54569 14.834 7.12037 15.8569 8.14329C16.8799 9.16622 17.4545 10.5536 17.4545 12.0002C17.4545 13.4469 16.8799 14.8343 15.8569 15.8572C14.834 16.8801 13.4466 17.4548 12 17.4548ZM12 3.81842C6.69818 3.81842 1.94182 7.09115 0 12.0002C2.60727 18.633 10.0909 21.8839 16.7236 19.2766C20.0509 17.9675 22.6909 15.3384 24 12.0002C22.0582 7.09115 17.3018 3.81842 12 3.81842Z" fill="#006FFD"/>
</mask>
<g mask="url(#mask0_190_2002)">
<rect width="24" height="24" fill="#006FFD"/>
</g>
</svg>
