<svg width="24" height="24" viewBox="0 0 24 24" fill="none" xmlns="http://www.w3.org/2000/svg">
<mask id="mask0_190_2056" style="mask-type:alpha" maskUnits="userSpaceOnUse" x="2" y="3" width="20" height="19">
<path fill-rule="evenodd" clip-rule="evenodd" d="M2 4.49994C2 4.10211 2.15051 3.72058 2.41842 3.43928C2.68633 3.15797 3.04969 2.99994 3.42857 2.99994H20.5714C20.9503 2.99994 21.3137 3.15797 21.5816 3.43928C21.8495 3.72058 22 4.10211 22 4.49994C22 4.89776 21.8495 5.27929 21.5816 5.5606C21.3137 5.8419 20.9503 5.99994 20.5714 5.99994H3.42857C3.04969 5.99994 2.68633 5.8419 2.41842 5.5606C2.15051 5.27929 2 4.89776 2 4.49994ZM5.14792 11.9999C5.14792 11.6021 5.29843 11.2206 5.56634 10.9393C5.83425 10.658 6.19762 10.4999 6.5765 10.4999H17.493C17.8719 10.4999 18.2352 10.658 18.5031 10.9393C18.771 11.2206 18.9215 11.6021 18.9215 11.9999C18.9215 12.3978 18.771 12.7793 18.5031 13.0606C18.2352 13.3419 17.8719 13.4999 17.493 13.4999H6.5765C6.19762 13.4999 5.83425 13.3419 5.56634 13.0606C5.29843 12.7793 5.14792 12.3978 5.14792 11.9999ZM8.81964 19.6983C8.81964 19.3004 8.97015 18.9189 9.23806 18.6376C9.50597 18.3563 9.86933 18.1983 10.2482 18.1983H13.8241C14.2029 18.1983 14.5663 18.3563 14.8342 18.6376C15.1021 18.9189 15.2526 19.3004 15.2526 19.6983C15.2526 20.0961 15.1021 20.4776 14.8342 20.7589C14.5663 21.0402 14.2029 21.1983 13.8241 21.1983H10.2482C9.86933 21.1983 9.50597 21.0402 9.23806 20.7589C8.97015 20.4776 8.81964 20.0961 8.81964 19.6983Z" fill="#006FFD"/>
</mask>
<g mask="url(#mask0_190_2056)">
<rect x="0.00390625" y="-0.000854492" width="24" height="24" fill="#006FFD"/>
</g>
</svg>
