<svg width="24" height="24" viewBox="0 0 24 24" fill="none" xmlns="http://www.w3.org/2000/svg">
<path d="M22.567 9.93722C22.7044 10.6736 22.7793 11.4435 22.7793 12.247C22.7793 18.5314 18.5733 23 12.2207 23C10.776 23.0004 9.34544 22.7162 8.01066 22.1636C6.67588 21.6109 5.46308 20.8007 4.44155 19.7792C3.42001 18.7576 2.60978 17.5448 2.05713 16.21C1.50449 14.8753 1.22026 13.4447 1.2207 12C1.22026 10.5553 1.50449 9.12474 2.05713 7.78996C2.60978 6.45518 3.42001 5.24238 4.44155 4.22084C5.46308 3.19931 6.67588 2.38907 8.01066 1.83643C9.34544 1.28378 10.776 0.99956 12.2207 1C15.1908 1 17.6727 2.09285 19.5768 3.86733L16.4759 6.9682V6.96038C15.3216 5.86083 13.8566 5.29653 12.2207 5.29653C8.59128 5.29653 5.64126 8.36276 5.64126 11.9933C5.64126 15.6227 8.59128 18.6957 12.2207 18.6957C15.5138 18.6957 17.7553 16.8128 18.2157 14.227H12.2207V9.93722H22.5681H22.567Z" fill="currentColor"/>
</svg>
