<svg width="24" height="24" viewBox="0 0 24 24" fill="none" xmlns="http://www.w3.org/2000/svg">
<path fill-rule="evenodd" clip-rule="evenodd" d="M2 4.5C2 4.10218 2.15051 3.72064 2.41842 3.43934C2.68633 3.15804 3.04969 3 3.42857 3H20.5714C20.9503 3 21.3137 3.15804 21.5816 3.43934C21.8495 3.72064 22 4.10218 22 4.5C22 4.89782 21.8495 5.27936 21.5816 5.56066C21.3137 5.84196 20.9503 6 20.5714 6H3.42857C3.04969 6 2.68633 5.84196 2.41842 5.56066C2.15051 5.27936 2 4.89782 2 4.5ZM2 12C2 11.6022 2.15051 11.2206 2.41842 10.9393C2.68633 10.658 3.04969 10.5 3.42857 10.5H20.5714C20.9503 10.5 21.3137 10.658 21.5816 10.9393C21.8495 11.2206 22 11.6022 22 12C22 12.3978 21.8495 12.7794 21.5816 13.0607C21.3137 13.342 20.9503 13.5 20.5714 13.5H3.42857C3.04969 13.5 2.68633 13.342 2.41842 13.0607C2.15051 12.7794 2 12.3978 2 12ZM2 19.5C2 19.1022 2.15051 18.7206 2.41842 18.4393C2.68633 18.158 3.04969 18 3.42857 18H20.5714C20.9503 18 21.3137 18.158 21.5816 18.4393C21.8495 18.7206 22 19.1022 22 19.5C22 19.8978 21.8495 20.2794 21.5816 20.5607C21.3137 20.842 20.9503 21 20.5714 21H3.42857C3.04969 21 2.68633 20.842 2.41842 20.5607C2.15051 20.2794 2 19.8978 2 19.5Z" fill="currentColor"/>
</svg>
