<svg width="24" height="24" viewBox="0 0 24 24" fill="none" xmlns="http://www.w3.org/2000/svg">
<mask id="mask0_190_1976" style="mask-type:alpha" maskUnits="userSpaceOnUse" x="0" y="1" width="24" height="22">
<path fill-rule="evenodd" clip-rule="evenodd" d="M0.25 7.83489C0.25 4.26192 3.17257 1.38739 6.75 1.38739C8.63471 1.38739 10.2293 2.39582 11.2598 3.24999C11.536 3.47887 11.784 3.70698 12 3.91935C12.216 3.70698 12.464 3.47887 12.7402 3.24999C13.7707 2.39582 15.3653 1.38739 17.25 1.38739C20.8274 1.38739 23.75 4.26192 23.75 7.83489C23.75 9.17468 23.4802 11.3519 21.9931 13.9317C20.5101 16.5045 17.8558 19.4097 13.1922 22.2768L13.1873 22.2798C12.8296 22.4975 12.4188 22.6126 12 22.6126C11.5812 22.6126 11.1704 22.4975 10.8127 22.2798L10.8078 22.2768C6.14418 19.4097 3.48987 16.5045 2.00687 13.9317C0.519753 11.3519 0.25 9.17468 0.25 7.83489ZM13.0014 6.53558C12.7654 6.85139 12.3943 7.03739 12 7.03739C11.6062 7.03739 11.2355 6.85182 10.9995 6.53668C10.9992 6.53631 10.9989 6.53595 10.9986 6.53558L10.999 6.53605L10.9995 6.53668L10.9995 6.53679L11 6.53743C11.0001 6.53749 10.9996 6.53682 10.9985 6.53545L10.9858 6.51897C10.9731 6.5026 10.952 6.47579 10.923 6.44003C10.8648 6.3684 10.7753 6.26156 10.6581 6.13127C10.4222 5.86907 10.0816 5.5205 9.66447 5.17479C8.79478 4.45396 7.76434 3.88739 6.75 3.88739C4.52933 3.88739 2.75 5.66646 2.75 7.83489C2.75 8.81245 2.93962 10.5439 4.1728 12.6832C5.39901 14.8105 7.69543 17.4074 12 20.0748C16.3046 17.4074 18.601 14.8105 19.8272 12.6832C21.0604 10.5439 21.25 8.81245 21.25 7.83489C21.25 5.66646 19.4707 3.88739 17.25 3.88739C16.2357 3.88739 15.2052 4.45396 14.3355 5.17479C13.9184 5.5205 13.5778 5.86907 13.3419 6.13127C13.2247 6.26156 13.1352 6.3684 13.077 6.44003C13.048 6.47579 13.0269 6.5026 13.0142 6.51897L13.0015 6.53545C13.0008 6.53636 13.0003 6.53696 13.0001 6.53724L13.0005 6.53679L13.001 6.53605L13.0014 6.53558Z" fill="#006FFD"/>
</mask>
<g mask="url(#mask0_190_1976)">
<rect width="24" height="24" fill="#006FFD"/>
</g>
</svg>
