<svg width="24" height="24" viewBox="0 0 24 24" fill="none" xmlns="http://www.w3.org/2000/svg">
<mask id="mask0_190_1980" style="mask-type:alpha" maskUnits="userSpaceOnUse" x="0" y="1" width="24" height="22">
<path d="M6.75 1.38739C3.17257 1.38739 0.25 4.26192 0.25 7.83489C0.25 9.17468 0.519753 11.3519 2.00687 13.9317C3.48987 16.5045 6.14418 19.4097 10.8078 22.2768L10.8127 22.2798C11.1704 22.4975 11.5812 22.6126 12 22.6126C12.4188 22.6126 12.8296 22.4975 13.1873 22.2798L13.1922 22.2768C17.8558 19.4097 20.5101 16.5045 21.9931 13.9317C23.4802 11.3519 23.75 9.17468 23.75 7.83489C23.75 4.26192 20.8274 1.38739 17.25 1.38739C15.3653 1.38739 13.7707 2.39582 12.7402 3.24999C12.464 3.47887 12.216 3.70698 12 3.91935C11.784 3.70698 11.536 3.47887 11.2598 3.24999C10.2293 2.39582 8.63471 1.38739 6.75 1.38739Z" fill="#006FFD"/>
</mask>
<g mask="url(#mask0_190_1980)">
<rect width="24" height="24" fill="#006FFD"/>
</g>
</svg>
