<svg width="24" height="24" viewBox="0 0 24 24" fill="none" xmlns="http://www.w3.org/2000/svg">
<mask id="mask0_190_1971" style="mask-type:alpha" maskUnits="userSpaceOnUse" x="0" y="2" width="25" height="21">
<path d="M8.59717 8.71641C8.59717 10.0971 7.52265 11.2164 6.19717 11.2164C4.87169 11.2164 3.79717 10.0971 3.79717 8.71641C3.79717 7.3357 4.87169 6.21641 6.19717 6.21641C7.52265 6.21641 8.59717 7.3357 8.59717 8.71641Z" fill="#006FFD"/>
<path fill-rule="evenodd" clip-rule="evenodd" d="M0.000488281 4.5003C0.000488281 3.11959 1.07501 2.00031 2.40049 2.00031H21.6005C22.926 2.00031 24.0005 3.11959 24.0005 4.5003V19.5003C24.0005 20.881 22.926 22.0003 21.6005 22.0003H20.0163C20.011 22.0003 20.0058 22.0003 20.0005 22.0003H2.94747C2.94295 22.0003 2.93843 22.0003 2.93391 22.0003H2.40049C1.07501 22.0003 0.000488281 20.881 0.000488281 19.5003V4.5003ZM2.40049 3.8753H21.6005C21.9319 3.8753 22.2005 4.15512 22.2005 4.5003V12.2904L16.9862 7.00033L8.11509 16.0003L5.50191 13.3492L1.80049 17.1044V4.5003C1.80049 4.15512 2.06912 3.8753 2.40049 3.8753Z" fill="#006FFD"/>
</mask>
<g mask="url(#mask0_190_1971)">
<rect x="0.000488281" y="-0.000549316" width="24" height="24" fill="#006FFD"/>
</g>
</svg>
