<svg width="24" height="24" viewBox="0 0 24 24" fill="none" xmlns="http://www.w3.org/2000/svg">
<path d="M4 2C2.93913 2 1.92172 2.42143 1.17157 3.17157C0.421427 3.92172 0 4.93913 0 6V6.402L12 12.864L24 6.404V6C24 4.93913 23.5786 3.92172 22.8284 3.17157C22.0783 2.42143 21.0609 2 20 2H4ZM24 8.674L12.474 14.88C12.3283 14.9584 12.1655 14.9995 12 14.9995C11.8345 14.9995 11.6717 14.9584 11.526 14.88L0 8.674V18C0 19.0609 0.421427 20.0783 1.17157 20.8284C1.92172 21.5786 2.93913 22 4 22H20C21.0609 22 22.0783 21.5786 22.8284 20.8284C23.5786 20.0783 24 19.0609 24 18V8.674Z" fill="currentColor"/>
</svg>
