<svg width="24" height="24" viewBox="0 0 24 24" fill="none" xmlns="http://www.w3.org/2000/svg">
<mask id="mask0_190_1962" style="mask-type:alpha" maskUnits="userSpaceOnUse" x="1" y="1" width="22" height="22">
<circle cx="12" cy="12" r="11" fill="#D9D9D9"/>
</mask>
<g mask="url(#mask0_190_1962)">
<rect width="24" height="24" fill="#006FFD"/>
</g>
<path fill-rule="evenodd" clip-rule="evenodd" d="M9.63303 10.8132C9.63303 10.2609 10.0807 9.81322 10.633 9.81322H11.9998C12.5521 9.81322 12.9998 10.2609 12.9998 10.8132V15.47H14.2057C14.758 15.47 15.2057 15.9177 15.2057 16.47C15.2057 17.0223 14.758 17.47 14.2057 17.47H9.79395C9.24166 17.47 8.79395 17.0223 8.79395 16.47C8.79395 15.9177 9.24166 15.47 9.79395 15.47H10.9998V11.8132H10.633C10.0807 11.8132 9.63303 11.3655 9.63303 10.8132Z" fill="white"/>
<path d="M13.2324 7.83845C13.2324 8.56111 12.6466 9.14694 11.924 9.14694C11.2013 9.14694 10.6155 8.56111 10.6155 7.83845C10.6155 7.1158 11.2013 6.52997 11.924 6.52997C12.6466 6.52997 13.2324 7.1158 13.2324 7.83845Z" fill="white"/>
</svg>
