<svg width="24" height="24" viewBox="0 0 24 24" fill="none" xmlns="http://www.w3.org/2000/svg">
<mask id="mask0_190_2061" style="mask-type:alpha" maskUnits="userSpaceOnUse" x="1" y="0" width="22" height="22">
<path d="M5.99472 22V7.15664H1.27919V22H5.99472ZM3.63757 5.12881C5.28196 5.12881 6.30551 3.98901 6.30551 2.56465C6.27487 1.10816 5.28202 0 3.66877 0C2.05578 0 1.00098 1.10818 1.00098 2.56465C1.00098 3.98908 2.02428 5.12881 3.60678 5.12881H3.63757ZM8.60476 22H13.3203V13.7107C13.3203 13.2671 13.3509 12.8239 13.4755 12.5068C13.8164 11.6205 14.5922 10.7024 15.8949 10.7024C17.6012 10.7024 18.2839 12.0636 18.2839 14.059V21.9999H22.9991V13.4888C22.9991 8.92955 20.6727 6.80816 17.5702 6.80816C15.0263 6.80816 13.9094 8.29584 13.2889 9.30909H13.3204V7.15633H8.60486C8.66675 8.54915 8.60476 22 8.60476 22Z" fill="black"/>
</mask>
<g mask="url(#mask0_190_2061)">
<rect width="24" height="24" fill="#006FFD"/>
</g>
</svg>
