<svg width="24" height="24" viewBox="0 0 24 24" fill="none" xmlns="http://www.w3.org/2000/svg">
<mask id="mask0_190_1989" style="mask-type:alpha" maskUnits="userSpaceOnUse" x="2" y="0" width="21" height="25">
<path d="M18.0005 6C18.0005 9.31371 15.3142 12 12.0005 12C8.68683 12 6.00054 9.31371 6.00054 6C6.00054 2.68629 8.68683 0 12.0005 0C15.3142 0 18.0005 2.68629 18.0005 6Z" fill="#006FFD"/>
<path d="M2.00049 20.0005C2.00049 16.6868 4.68678 14.0005 8.00049 14.0005H16.0005C19.3142 14.0005 22.0005 16.6868 22.0005 20.0005V21.0005C22.0005 22.6574 20.6573 24.0005 19.0005 24.0005H5.00049C3.34363 24.0005 2.00049 22.6574 2.00049 21.0005V20.0005Z" fill="#006FFD"/>
</mask>
<g mask="url(#mask0_190_1989)">
<rect x="0.000488281" y="-0.00109863" width="24" height="24" fill="#006FFD"/>
</g>
</svg>
