<svg width="24" height="24" viewBox="0 0 24 24" fill="none" xmlns="http://www.w3.org/2000/svg">
<path d="M0.823462 8.43963C0.690283 8.48401 0.572231 8.56487 0.482734 8.67302C0.393238 8.78117 0.33589 8.91226 0.317214 9.05139C0.298538 9.19052 0.319284 9.3321 0.377092 9.46002C0.4349 9.58795 0.527448 9.69708 0.644211 9.775L7.27652 13.4311C7.40013 13.4992 7.54046 13.5311 7.68136 13.523C7.82227 13.5149 7.95804 13.4673 8.07307 13.3855L15.119 8.36114C15.4595 8.1331 15.8668 8.5404 15.6388 8.88087L10.6144 15.9268C10.5326 16.0419 10.485 16.1776 10.4769 16.3185C10.4688 16.4595 10.5007 16.5998 10.5688 16.7234L14.2249 23.3557C14.3028 23.4725 14.412 23.565 14.5399 23.6228C14.6678 23.6806 14.8094 23.7014 14.9485 23.6827C15.0876 23.664 15.2187 23.6067 15.3269 23.5172C15.435 23.4277 15.5159 23.3096 15.5603 23.1764L22.4546 2.49357C22.4984 2.36151 22.5047 2.21984 22.4727 2.08442C22.4406 1.94899 22.3716 1.82515 22.2732 1.72675C22.1748 1.62835 22.0509 1.55926 21.9155 1.52723C21.7801 1.49519 21.6384 1.50146 21.5063 1.54534L0.823462 8.43963Z" fill="currentColor"/>
</svg>
