<svg width="24" height="24" viewBox="0 0 24 24" fill="none" xmlns="http://www.w3.org/2000/svg">
<mask id="mask0_190_1990" style="mask-type:alpha" maskUnits="userSpaceOnUse" x="2" y="0" width="20" height="24">
<path fill-rule="evenodd" clip-rule="evenodd" d="M8.66889 1.30393C9.56473 0.461183 10.7643 0 12.0003 0C13.2362 0 14.4358 0.461183 15.3316 1.30393C16.2301 2.14912 16.7503 3.31233 16.7503 4.5426V11.3011C16.7503 11.9914 16.1906 12.5511 15.5003 12.5511C14.8099 12.5511 14.2503 11.9914 14.2503 11.3011V4.5426C14.2503 4.02636 14.033 3.51461 13.6186 3.12483C13.2017 2.73261 12.6208 2.5 12.0003 2.5C11.3797 2.5 10.7988 2.73261 10.3819 3.12483C9.96755 3.51461 9.75026 4.02636 9.75026 4.5426V11.3011C9.75026 11.9914 9.19062 12.5511 8.50026 12.5511C7.80991 12.5511 7.25026 11.9914 7.25026 11.3011V4.5426C7.25026 3.31233 7.77047 2.14912 8.66889 1.30393Z" fill="#006FFD"/>
<path fill-rule="evenodd" clip-rule="evenodd" d="M2.87326 10.215C2.99507 8.51449 4.41014 7.19717 6.11496 7.19717H17.8855C19.5903 7.19717 21.0053 8.5145 21.1272 10.215L21.8435 20.215C21.9783 22.0965 20.4882 23.6972 18.6018 23.6972H5.39861C3.51223 23.6972 2.02213 22.0965 2.15691 20.215L2.87326 10.215ZM6.11496 9.69717C5.72153 9.69717 5.39498 10.0012 5.36687 10.3936L4.65052 20.3936C4.61942 20.8278 4.96329 21.1972 5.39861 21.1972H18.6018C19.0371 21.1972 19.381 20.8278 19.3499 20.3936L18.6335 10.3936C18.6054 10.0012 18.2789 9.69717 17.8855 9.69717H6.11496Z" fill="#006FFD"/>
</mask>
<g mask="url(#mask0_190_1990)">
<rect width="24" height="24" fill="#006FFD"/>
</g>
</svg>
