<svg width="24" height="24" viewBox="0 0 24 24" fill="none" xmlns="http://www.w3.org/2000/svg">
<path fill-rule="evenodd" clip-rule="evenodd" d="M8.66885 1.33732C9.56468 0.494569 10.7642 0.0333862 12.0002 0.0333862C13.2362 0.0333862 14.4358 0.494569 15.3316 1.33732C16.23 2.1825 16.7502 3.34572 16.7502 4.57598V10.315C16.7502 11.0053 16.1906 11.565 15.5002 11.565C14.8099 11.565 14.2502 11.0053 14.2502 10.315V4.57598C14.2502 4.05975 14.0329 3.54799 13.6186 3.15821C13.2017 2.766 12.6208 2.53339 12.0002 2.53339C11.3797 2.53339 10.7988 2.766 10.3818 3.15821C9.96751 3.54799 9.75022 4.05975 9.75022 4.57598V10.315C9.75022 11.0053 9.19057 11.565 8.50022 11.565C7.80986 11.565 7.25022 11.0053 7.25022 10.315V4.57598C7.25022 3.34572 7.77042 2.1825 8.66885 1.33732Z" fill="currentColor"/>
<path d="M6.11496 7.23057C4.41014 7.23057 2.99507 8.54789 2.87326 10.2483L2.15691 20.2483C2.02213 22.1299 3.51223 23.7306 5.39861 23.7306H18.6018C20.4882 23.7306 21.9783 22.1299 21.8435 20.2484L21.1272 10.2483C21.0053 8.54789 19.5903 7.23057 17.8855 7.23057H6.11496Z" fill="currentColor"/>
</svg>
