<svg width="24" height="24" viewBox="0 0 24 24" fill="none" xmlns="http://www.w3.org/2000/svg">
<mask id="mask0_190_2052" style="mask-type:alpha" maskUnits="userSpaceOnUse" x="0" y="1" width="24" height="22">
<path fill-rule="evenodd" clip-rule="evenodd" d="M5.25643 2.07507C5.73321 1.64164 6.46134 1.64164 6.93812 2.07507L11.3381 6.07508C11.8489 6.53946 11.8866 7.33002 11.4222 7.84084C10.9578 8.35166 10.1673 8.38931 9.65643 7.92493L7.34727 5.82569V21C7.34727 21.6904 6.78763 22.25 6.09727 22.25C5.40692 22.25 4.84727 21.6904 4.84727 21V5.82569L2.53812 7.92493C2.02729 8.38931 1.23673 8.35166 0.772349 7.84084C0.307966 7.33002 0.345611 6.53946 0.856433 6.07508L5.25643 2.07507ZM17.9027 1.75C18.5931 1.75 19.1527 2.30964 19.1527 3V18.1743L21.4619 16.0751C21.9727 15.6107 22.7633 15.6483 23.2277 16.1592C23.6921 16.67 23.6544 17.4605 23.1436 17.9249L18.7436 21.9249C18.2668 22.3584 17.5387 22.3584 17.0619 21.9249L12.6619 17.9249C12.1511 17.4605 12.1134 16.67 12.5778 16.1592C13.0422 15.6483 13.8328 15.6107 14.3436 16.0751L16.6527 18.1743V3C16.6527 2.30964 17.2124 1.75 17.9027 1.75Z" fill="#006FFD"/>
</mask>
<g mask="url(#mask0_190_2052)">
<rect x="0.00390625" y="-0.00012207" width="24" height="24" fill="#006FFD"/>
</g>
</svg>
