<svg width="24" height="24" viewBox="0 0 24 24" fill="none" xmlns="http://www.w3.org/2000/svg">
<path fill-rule="evenodd" clip-rule="evenodd" d="M15.6699 9.49869C14.8555 9.38033 14.1515 8.86871 13.7874 8.13062L12 4.50699L10.2126 8.13062C9.84851 8.86871 9.1445 9.38033 8.33006 9.49869L4.32991 10.08L7.22492 12.9026C7.81407 13.477 8.08286 14.3045 7.94369 15.1154L7.26025 19.098L10.8366 17.2177C11.5649 16.8348 12.4351 16.8348 13.1634 17.2177L16.7397 19.098L16.0563 15.1154C15.9171 14.3045 16.1859 13.477 16.7751 12.9026L19.6701 10.08L15.6699 9.49869ZM23.2242 8.07031C23.7201 8.14399 24.0658 8.60304 23.9893 9.09893C23.9609 9.29729 23.8674 9.47865 23.7257 9.6175L18.5203 14.6926L19.7501 21.859C19.8351 22.352 19.5036 22.8196 19.0105 22.9046C18.815 22.9386 18.611 22.9074 18.4353 22.8139L12 19.4305L5.56472 22.8139C5.41511 22.8929 5.24637 22.9284 5.07761 22.9164C4.90886 22.9043 4.74686 22.8453 4.60997 22.7458C4.47308 22.6464 4.36679 22.5106 4.30315 22.3539C4.23951 22.1971 4.22106 22.0257 4.2499 21.859L5.47971 14.6926L0.274255 9.6175C0.101883 9.44947 0.00326779 9.21988 7.97563e-05 8.97919C-0.00310828 8.73849 0.0893913 8.50637 0.257253 8.33384C0.396103 8.19216 0.577458 8.09865 0.775815 8.07031L7.97051 7.02469L11.1867 0.504404C11.4106 0.056684 11.9547 -0.127505 12.4024 0.0935217C12.5809 0.181366 12.7254 0.325883 12.8133 0.504404L16.0295 7.02469L23.2242 8.07031Z" fill="currentColor"/>
</svg>
