<svg width="24" height="24" viewBox="0 0 24 24" fill="none" xmlns="http://www.w3.org/2000/svg">
<mask id="mask0_190_2032" style="mask-type:alpha" maskUnits="userSpaceOnUse" x="0" y="1" width="24" height="22">
<path d="M2.84846 4.15586H21.1515C21.8706 4.15586 22.4589 3.56755 22.4589 2.8485C22.4589 2.12945 21.8706 1.54114 21.1515 1.54114H2.84846C2.12941 1.54114 1.5411 2.12945 1.5411 2.8485C1.5411 3.56755 2.12941 4.15586 2.84846 4.15586ZM22.6681 6.50912C22.5504 5.90773 22.0144 5.46323 21.3869 5.46323H2.61314C1.9856 5.46323 1.44958 5.90773 1.33192 6.50912L0.0245582 13.0459C-0.132325 13.8565 0.482135 14.6148 1.30577 14.6148H1.5411V21.1516C1.5411 21.8706 2.12941 22.4589 2.84846 22.4589H13.3074C14.0264 22.4589 14.6147 21.8706 14.6147 21.1516V14.6148H19.8442V21.1516C19.8442 21.8706 20.4325 22.4589 21.1515 22.4589C21.8706 22.4589 22.4589 21.8706 22.4589 21.1516V14.6148H22.6942C23.5179 14.6148 24.1323 13.8565 23.9754 13.0459L22.6681 6.50912ZM12 19.8442H4.15582V14.6148H12V19.8442Z" fill="black"/>
</mask>
<g mask="url(#mask0_190_2032)">
<rect y="-0.00109863" width="24" height="24" fill="#006FFD"/>
</g>
</svg>
