<svg width="24" height="24" viewBox="0 0 24 24" fill="none" xmlns="http://www.w3.org/2000/svg">
<path d="M21 12H20C20 16.4183 16.4183 20 12 20V21V22C17.5228 22 22 17.5228 22 12H21ZM12 21V20C7.58172 20 4 16.4183 4 12H3H2C2 17.5228 6.47715 22 12 22V21ZM3 12H4C4 7.58172 7.58172 4 12 4V3V2C6.47715 2 2 6.47715 2 12H3ZM12 3V4C16.4183 4 20 7.58172 20 12H21H22C22 6.47715 17.5228 2 12 2V3ZM16 12H15C15 13.6569 13.6569 15 12 15V16V17C14.7614 17 17 14.7614 17 12H16ZM12 16V15C10.3431 15 9 13.6569 9 12H8H7C7 14.7614 9.23858 17 12 17V16ZM8 12H9C9 10.3431 10.3431 9 12 9V8V7C9.23858 7 7 9.23858 7 12H8ZM12 8V9C13.6569 9 15 10.3431 15 12H16H17C17 9.23858 14.7614 7 12 7V8ZM18.364 5.63604L17.6569 4.92893L14.1213 8.46447L14.8284 9.17157L15.5355 9.87868L19.0711 6.34315L18.364 5.63604ZM14.8284 14.8284L14.1213 15.5355L17.6569 19.0711L18.364 18.364L19.0711 17.6569L15.5355 14.1213L14.8284 14.8284ZM9.17157 9.17157L9.87868 8.46447L6.34315 4.92893L5.63604 5.63604L4.92893 6.34315L8.46447 9.87868L9.17157 9.17157ZM9.17157 14.8284L8.46447 14.1213L4.92893 17.6569L5.63604 18.364L6.34315 19.0711L9.87868 15.5355L9.17157 14.8284Z" fill="currentColor"/>
</svg>
