<svg width="24" height="24" viewBox="0 0 24 24" fill="none" xmlns="http://www.w3.org/2000/svg">
<path d="M12.4128 0C10.3078 0 8.55506 1.57286 8.26086 3.6H4.15579C4.10469 3.59126 4.05294 3.58694 4.0011 3.58711C3.95631 3.58808 3.91165 3.59238 3.86751 3.6H1.91282C1.79356 3.59831 1.67515 3.62035 1.56448 3.66482C1.45381 3.70929 1.35308 3.77532 1.26815 3.85906C1.18321 3.9428 1.11577 4.04258 1.06974 4.15261C1.02371 4.26264 1 4.38073 1 4.5C1 4.61927 1.02371 4.73736 1.06974 4.84739C1.11577 4.95742 1.18321 5.0572 1.26815 5.14094C1.35308 5.22468 1.45381 5.29071 1.56448 5.33518C1.67515 5.37965 1.79356 5.40169 1.91282 5.4H3.19602L4.70657 21.0176C4.86922 22.7016 6.29989 24 7.99133 24H16.8331C18.5247 24 19.9553 22.7017 20.1179 21.0176L21.6296 5.4H22.9128C23.0321 5.40169 23.1505 5.37965 23.2612 5.33518C23.3718 5.29071 23.4726 5.22468 23.5575 5.14094C23.6424 5.0572 23.7099 4.95742 23.7559 4.84739C23.8019 4.73736 23.8256 4.61927 23.8256 4.5C23.8256 4.38073 23.8019 4.26264 23.7559 4.15261C23.7099 4.04258 23.6424 3.9428 23.5575 3.85906C23.4726 3.77532 23.3718 3.70929 23.2612 3.66482C23.1505 3.62035 23.0321 3.59831 22.9128 3.6H20.9593C20.8638 3.58451 20.7665 3.58451 20.671 3.6H16.5648C16.2706 1.57286 14.5178 0 12.4128 0ZM12.4128 1.8C13.5403 1.8 14.4653 2.5609 14.7296 3.6H10.096C10.3604 2.5609 11.2853 1.8 12.4128 1.8ZM5.00305 5.4H19.8214L18.3261 20.8441C18.2511 21.6212 17.6136 22.2 16.8331 22.2H7.99133C7.21198 22.2 6.57332 21.6202 6.49836 20.8441L5.00305 5.4ZM10.2988 8.38711C10.0603 8.39084 9.833 8.48907 9.66689 8.66024C9.50078 8.8314 9.4094 9.06151 9.41282 9.3V18.3C9.41113 18.4193 9.43316 18.5377 9.47764 18.6483C9.52211 18.759 9.58813 18.8597 9.67187 18.9447C9.75561 19.0296 9.8554 19.097 9.96543 19.1431C10.0755 19.1891 10.1935 19.2128 10.3128 19.2128C10.4321 19.2128 10.5502 19.1891 10.6602 19.1431C10.7702 19.097 10.87 19.0296 10.9538 18.9447C11.0375 18.8597 11.1035 18.759 11.148 18.6483C11.1925 18.5377 11.2145 18.4193 11.2128 18.3V9.3C11.2145 9.17954 11.1921 9.05996 11.1467 8.94835C11.1014 8.83673 11.0341 8.73535 10.9489 8.65022C10.8636 8.56509 10.7622 8.49794 10.6505 8.45274C10.5388 8.40755 10.4192 8.38523 10.2988 8.38711ZM14.4988 8.38711C14.2603 8.39084 14.033 8.48907 13.8669 8.66024C13.7008 8.8314 13.6094 9.06151 13.6128 9.3V18.3C13.6111 18.4193 13.6332 18.5377 13.6776 18.6483C13.7221 18.759 13.7881 18.8597 13.8719 18.9447C13.9556 19.0296 14.0554 19.097 14.1654 19.1431C14.2755 19.1891 14.3935 19.2128 14.5128 19.2128C14.6321 19.2128 14.7502 19.1891 14.8602 19.1431C14.9702 19.097 15.07 19.0296 15.1538 18.9447C15.2375 18.8597 15.3035 18.759 15.348 18.6483C15.3925 18.5377 15.4145 18.4193 15.4128 18.3V9.3C15.4145 9.17954 15.3921 9.05996 15.3467 8.94835C15.3014 8.83673 15.2341 8.73535 15.1489 8.65022C15.0636 8.56509 14.9622 8.49794 14.8505 8.45274C14.7388 8.40755 14.6192 8.38523 14.4988 8.38711Z" fill="#006FFD"/>
</svg>
