<svg width="24" height="21" viewBox="0 0 24 21" fill="none" xmlns="http://www.w3.org/2000/svg">
<path d="M12 0C11.8557 1.85058e-05 11.7129 0.0286522 11.5798 0.0842436C11.4466 0.139835 11.3259 0.22128 11.2244 0.323864L0.221591 9.92472C0.152873 9.97542 0.0970222 10.0416 0.0585342 10.1178C0.0200462 10.194 -3.28112e-06 10.2782 4.02754e-10 10.3636C4.02755e-10 10.5083 0.0574673 10.647 0.15976 10.7493C0.262052 10.8516 0.400791 10.9091 0.545455 10.9091H3.27273V19.6364C3.27273 20.2385 3.76145 20.7273 4.36364 20.7273H8.72727C9.32945 20.7273 9.81818 20.2385 9.81818 19.6364V13.0909H14.1818V19.6364C14.1818 20.2385 14.6705 20.7273 15.2727 20.7273H19.6364C20.2385 20.7273 20.7273 20.2385 20.7273 19.6364V10.9091H23.4545C23.5992 10.9091 23.7379 10.8516 23.8402 10.7493C23.9425 10.647 24 10.5083 24 10.3636C24 10.2782 23.98 10.194 23.9415 10.1178C23.903 10.0416 23.8471 9.97542 23.7784 9.92472L12.782 0.330256C12.7798 0.328116 12.7777 0.325985 12.7756 0.323864C12.6741 0.22128 12.5534 0.139835 12.4202 0.0842436C12.2871 0.0286522 12.1443 1.85058e-05 12 0Z" fill="#006FFD"/>
</svg>
