<svg width="24" height="24" viewBox="0 0 24 24" fill="none" xmlns="http://www.w3.org/2000/svg">
<mask id="mask0_190_1970" style="mask-type:alpha" maskUnits="userSpaceOnUse" x="1" y="1" width="22" height="22">
<circle cx="12" cy="12" r="11" fill="#D9D9D9"/>
</mask>
<g mask="url(#mask0_190_1970)">
<rect width="24" height="24" fill="#006FFD"/>
</g>
<path d="M11.4474 6.06006C11.6217 5.98331 11.8101 5.94375 12.0006 5.94391C12.1909 5.94396 12.3791 5.98367 12.5532 6.06051C12.7273 6.13735 12.8835 6.24964 13.0118 6.39021C13.1401 6.53079 13.2377 6.69655 13.2983 6.87694C13.359 7.05733 13.3814 7.24838 13.3641 7.43791L12.8181 13.4469C12.7968 13.6489 12.7015 13.8359 12.5506 13.9719C12.3996 14.1078 12.2037 14.183 12.0006 14.183C11.7974 14.183 11.6015 14.1078 11.4505 13.9719C11.2996 13.8359 11.2043 13.6489 11.1831 13.4469L10.6356 7.43791C10.6182 7.24826 10.6407 7.05708 10.7014 6.87659C10.7622 6.69609 10.8599 6.53026 10.9883 6.38966C11.1168 6.24907 11.2732 6.13681 11.4474 6.06006Z" fill="white"/>
<path d="M13.3091 16.7477C13.3091 17.4703 12.7233 18.0562 12.0006 18.0562C11.278 18.0562 10.6921 17.4703 10.6921 16.7477C10.6921 16.025 11.278 15.4392 12.0006 15.4392C12.7233 15.4392 13.3091 16.025 13.3091 16.7477Z" fill="white"/>
</svg>
