<svg width="24" height="24" viewBox="0 0 24 24" fill="none" xmlns="http://www.w3.org/2000/svg">
<mask id="mask0_190_1970" style="mask-type:alpha" maskUnits="userSpaceOnUse" x="1" y="1" width="22" height="22">
<circle cx="12" cy="12" r="11" fill="#D9D9D9"/>
</mask>
<g mask="url(#mask0_190_1970)">
<rect width="24" height="24" fill="#FFB37C"/>
</g>
<path d="M11.4474 6.06C11.6217 5.98324 11.8101 5.94369 12.0006 5.94385C12.1909 5.94389 12.3791 5.98361 12.5532 6.06045C12.7273 6.13729 12.8835 6.24958 13.0118 6.39015C13.1401 6.53072 13.2377 6.69649 13.2983 6.87688C13.359 7.05727 13.3814 7.24832 13.3641 7.43785L12.8181 13.4468C12.7968 13.6489 12.7015 13.8359 12.5506 13.9718C12.3996 14.1077 12.2037 14.183 12.0006 14.183C11.7974 14.183 11.6015 14.1077 11.4505 13.9718C11.2996 13.8359 11.2043 13.6489 11.1831 13.4468L10.6356 7.43785C10.6182 7.2482 10.6407 7.05702 10.7014 6.87653C10.7622 6.69603 10.8599 6.53019 10.9883 6.3896C11.1168 6.24901 11.2732 6.13675 11.4474 6.06Z" fill="white"/>
<path d="M13.3091 16.7476C13.3091 17.4703 12.7233 18.0561 12.0006 18.0561C11.278 18.0561 10.6921 17.4703 10.6921 16.7476C10.6921 16.0249 11.278 15.4391 12.0006 15.4391C12.7233 15.4391 13.3091 16.0249 13.3091 16.7476Z" fill="white"/>
</svg>
