<svg width="24" height="24" viewBox="0 0 24 24" fill="none" xmlns="http://www.w3.org/2000/svg">
<path d="M9.70711 13.2929C9.31658 12.9024 8.68342 12.9024 8.29289 13.2929C7.90237 13.6834 7.90237 14.3166 8.29289 14.7071L9 14L9.70711 13.2929ZM11 16L10.2929 16.7071C10.6834 17.0976 11.3166 17.0976 11.7071 16.7071L11 16ZM15.7071 12.7071C16.0976 12.3166 16.0976 11.6834 15.7071 11.2929C15.3166 10.9024 14.6834 10.9024 14.2929 11.2929L15 12L15.7071 12.7071ZM19 7H18V19H19H20V7H19ZM17 21V20H7V21V22H17V21ZM5 19H6V7H5H4V19H5ZM7 5V6H9V5V4H7V5ZM15 5V6H17V5V4H15V5ZM7 21V20C6.44772 20 6 19.5523 6 19H5H4C4 20.6569 5.34315 22 7 22V21ZM19 19H18C18 19.5523 17.5523 20 17 20V21V22C18.6569 22 20 20.6569 20 19H19ZM19 7H20C20 5.34315 18.6569 4 17 4V5V6C17.5523 6 18 6.44772 18 7H19ZM5 7H6C6 6.44772 6.44772 6 7 6V5V4C5.34315 4 4 5.34315 4 7H5ZM9 14L8.29289 14.7071L10.2929 16.7071L11 16L11.7071 15.2929L9.70711 13.2929L9 14ZM11 16L11.7071 16.7071L15.7071 12.7071L15 12L14.2929 11.2929L10.2929 15.2929L11 16ZM11 3V4H13V3V2H11V3ZM13 7V6H11V7V8H13V7ZM11 7V6C10.4477 6 10 5.55228 10 5H9H8C8 6.65685 9.34315 8 11 8V7ZM15 5H14C14 5.55228 13.5523 6 13 6V7V8C14.6569 8 16 6.65685 16 5H15ZM13 3V4C13.5523 4 14 4.44772 14 5H15H16C16 3.34315 14.6569 2 13 2V3ZM11 3V2C9.34315 2 8 3.34315 8 5H9H10C10 4.44772 10.4477 4 11 4V3Z" fill="#21272A"/>
</svg>
