<svg width="24" height="24" viewBox="0 0 24 24" fill="none" xmlns="http://www.w3.org/2000/svg">
<path d="M2.99976 3L6.58891 6.58916M20.9998 21L17.411 17.4112M13.8746 18.8246C13.2675 18.9398 12.6409 19 12.0002 19C7.52256 19 3.73226 16.0571 2.45801 12C2.80491 10.8955 3.33826 9.87361 4.02119 8.97118M9.87844 9.87868C10.4213 9.33579 11.1713 9 11.9998 9C13.6566 9 14.9998 10.3431 14.9998 12C14.9998 12.8284 14.664 13.5784 14.1211 14.1213M9.87844 9.87868L14.1211 14.1213M9.87844 9.87868L6.58891 6.58916M14.1211 14.1213L6.58891 6.58916M14.1211 14.1213L17.411 17.4112M6.58891 6.58916C8.14874 5.58354 10.0063 5 12.0002 5C16.4778 5 20.2681 7.94291 21.5424 12C20.8355 14.2507 19.3543 16.1585 17.411 17.4112" stroke="#21272A" stroke-width="2" stroke-linecap="round" stroke-linejoin="round"/>
</svg>
