<svg width="24" height="24" viewBox="0 0 24 24" fill="none" xmlns="http://www.w3.org/2000/svg">
<path d="M13 4C13 3.44772 12.5523 3 12 3C11.4477 3 11 3.44772 11 4H12H13ZM11 5C11 5.55228 11.4477 6 12 6C12.5523 6 13 5.55228 13 5H12H11ZM18 15C17.4477 15 17 15.4477 17 16C17 16.5523 17.4477 17 18 17V16V15ZM20 17C20.5523 17 21 16.5523 21 16C21 15.4477 20.5523 15 20 15V16V17ZM12 16V15C11.4477 15 11 15.4477 11 16H12ZM14 17C14.5523 17 15 16.5523 15 16C15 15.4477 14.5523 15 14 15V16V17ZM11 20C11 20.5523 11.4477 21 12 21C12.5523 21 13 20.5523 13 20H12H11ZM13 9C13 8.44772 12.5523 8 12 8C11.4477 8 11 8.44772 11 9H12H13ZM12 12H11C11 12.5523 11.4477 13 12 13V12ZM16 19C15.4477 19 15 19.4477 15 20C15 20.5523 15.4477 21 16 21V20V19ZM20 21C20.5523 21 21 20.5523 21 20C21 19.4477 20.5523 19 20 19V20V21ZM4 11C3.44772 11 3 11.4477 3 12C3 12.5523 3.44772 13 4 13V12V11ZM8 13C8.55228 13 9 12.5523 9 12C9 11.4477 8.55228 11 8 11V12V13ZM12.01 13C12.5623 13 13.01 12.5523 13.01 12C13.01 11.4477 12.5623 11 12.01 11V12V13ZM16.01 13C16.5623 13 17.01 12.5523 17.01 12C17.01 11.4477 16.5623 11 16.01 11V12V13ZM20 11C19.4477 11 19 11.4477 19 12C19 12.5523 19.4477 13 20 13V12V11ZM20.01 13C20.5623 13 21.01 12.5523 21.01 12C21.01 11.4477 20.5623 11 20.01 11V12V13ZM5 4V5H7V4V3H5V4ZM8 5H7V7H8H9V5H8ZM7 8V7H5V8V9H7V8ZM4 7H5V5H4H3V7H4ZM5 8V7H4H3C3 8.10457 3.89543 9 5 9V8ZM8 7H7V8V9C8.10457 9 9 8.10457 9 7H8ZM7 4V5H8H9C9 3.89543 8.10457 3 7 3V4ZM5 4V3C3.89543 3 3 3.89543 3 5H4H5V4ZM17 4V5H19V4V3H17V4ZM20 5H19V7H20H21V5H20ZM19 8V7H17V8V9H19V8ZM16 7H17V5H16H15V7H16ZM17 8V7H16H15C15 8.10457 15.8954 9 17 9V8ZM20 7H19V8V9C20.1046 9 21 8.10457 21 7H20ZM19 4V5H20H21C21 3.89543 20.1046 3 19 3V4ZM17 4V3C15.8954 3 15 3.89543 15 5H16H17V4ZM5 16V17H7V16V15H5V16ZM8 17H7V19H8H9V17H8ZM7 20V19H5V20V21H7V20ZM4 19H5V17H4H3V19H4ZM5 20V19H4H3C3 20.1046 3.89543 21 5 21V20ZM8 19H7V20V21C8.10457 21 9 20.1046 9 19H8ZM7 16V17H8H9C9 15.8954 8.10457 15 7 15V16ZM5 16V15C3.89543 15 3 15.8954 3 17H4H5V16ZM12 4H11V5H12H13V4H12ZM18 16V17H20V16V15H18V16ZM12 16V17H14V16V15H12V16ZM12 16H11V20H12H13V16H12ZM12 9H11V12H12H13V9H12ZM16 20V21H20V20V19H16V20ZM4 12V13H8V12V11H4V12ZM12 12V13H12.01V12V11H12V12ZM20 12V13H20.01V12V11H20V12ZM12 12V13H16.01V12V11H12V12Z" fill="#21272A"/>
</svg>
