<svg width="24" height="24" viewBox="0 0 24 24" fill="none" xmlns="http://www.w3.org/2000/svg">
<path d="M19.0711 4.92894C18.6805 4.53842 18.0474 4.53842 17.6569 4.92894C17.2663 5.31946 17.2663 5.95263 17.6569 6.34315L18.364 5.63605L19.0711 4.92894ZM18.364 18.364L17.6569 19.0711H17.6569L18.364 18.364ZM16.2426 7.75737C15.8521 7.36684 15.219 7.36684 14.8284 7.75737C14.4379 8.14789 14.4379 8.78106 14.8284 9.17158L15.5355 8.46447L16.2426 7.75737ZM15.5355 15.5355L14.8284 16.2426L14.8284 16.2427L15.5355 15.5355ZM7.75736 16.2427C8.14788 16.6332 8.78105 16.6332 9.17157 16.2427C9.5621 15.8521 9.5621 15.219 9.17157 14.8284L8.46447 15.5355L7.75736 16.2427ZM8.03998 12.5662C7.96233 12.0194 7.45612 11.6391 6.90932 11.7167C6.36252 11.7943 5.9822 12.3005 6.05984 12.8473L7.04991 12.7068L8.03998 12.5662ZM4.92893 19.0711C5.31946 19.4616 5.95262 19.4616 6.34315 19.0711C6.73367 18.6806 6.73367 18.0474 6.34315 17.6569L5.63604 18.364L4.92893 19.0711ZM4.41704 9.44452C4.59296 8.921 4.31118 8.354 3.78767 8.17807C3.26415 8.00215 2.69714 8.28393 2.52122 8.80744L3.46913 9.12598L4.41704 9.44452ZM3.70711 2.29289C3.31658 1.90237 2.68342 1.90237 2.29289 2.29289C1.90237 2.68342 1.90237 3.31658 2.29289 3.70711L3 3L3.70711 2.29289ZM20.2929 21.7071C20.6834 22.0976 21.3166 22.0976 21.7071 21.7071C22.0976 21.3166 22.0976 20.6834 21.7071 20.2929L21 21L20.2929 21.7071ZM18.364 5.63605L17.6569 6.34315C20.781 9.46735 20.781 14.5327 17.6569 17.6569L18.364 18.364L19.0711 19.0711C22.9763 15.1658 22.9763 8.83418 19.0711 4.92894L18.364 5.63605ZM15.5355 8.46447L14.8284 9.17158C16.3905 10.7337 16.3905 13.2663 14.8284 14.8284L15.5355 15.5355L16.2426 16.2427C18.5858 13.8995 18.5858 10.1005 16.2426 7.75737L15.5355 8.46447ZM12 11V12H13H14C14 10.8954 13.1046 10 12 10V11ZM8.46447 15.5355L9.17157 14.8284C8.5339 14.1908 8.15753 13.394 8.03998 12.5662L7.04991 12.7068L6.05984 12.8473C6.2362 14.0894 6.80287 15.2882 7.75736 16.2427L8.46447 15.5355ZM5.63604 18.364L6.34315 17.6569C4.1231 15.4368 3.47919 12.2354 4.41704 9.44452L3.46913 9.12598L2.52122 8.80744C1.35084 12.2902 2.15154 16.2937 4.92893 19.0711L5.63604 18.364ZM11.2929 11.2929L12 12L12 12V11V10C11.448 10 10.9466 10.225 10.5858 10.5858L11.2929 11.2929ZM3 3L2.29289 3.70711L10.5858 12L11.2929 11.2929L12 10.5858L3.70711 2.29289L3 3ZM11.2929 11.2929L10.5858 12L12 13.4142L12.7071 12.7071L13.4142 12L12 10.5858L11.2929 11.2929ZM12.7071 12.7071L12 13.4142L14.8284 16.2426L15.5355 15.5355L16.2426 14.8284L13.4142 12L12.7071 12.7071ZM15.5355 15.5355L14.8284 16.2427L17.6569 19.0711L18.364 18.364L19.0711 17.6569L16.2426 14.8284L15.5355 15.5355ZM18.364 18.364L17.6569 19.0711L20.2929 21.7071L21 21L21.7071 20.2929L19.0711 17.6569L18.364 18.364ZM13 12H12L12 12L12.7071 12.7071L13.4142 13.4142C13.7751 13.0534 14 12.552 14 12H13Z" fill="#21272A"/>
</svg>
