<svg width="24" height="24" viewBox="0 0 24 24" fill="none" xmlns="http://www.w3.org/2000/svg">
<path fill-rule="evenodd" clip-rule="evenodd" d="M20.9512 2.11349C21.4393 1.62533 22.2316 1.62534 22.7197 2.11349C23.2076 2.6016 23.2076 3.39296 22.7197 3.88107L19.9912 6.60861C21.7435 7.99595 23.1451 9.83897 24 12.0002C22.6909 15.3383 20.0508 17.9675 16.7236 19.2766C13.573 20.515 10.2319 20.4286 7.31152 19.2883L4.71973 21.8811C4.23158 22.3692 3.44031 22.3692 2.95215 21.8811C2.464 21.3929 2.464 20.6017 2.95215 20.1135L20.9512 2.11349ZM15.2139 11.386C15.2523 11.5869 15.2724 11.7926 15.2725 12.0002C15.2724 12.8681 14.9281 13.701 14.3145 14.3147C13.7007 14.9283 12.8679 15.2727 12 15.2727C11.7926 15.2727 11.5875 15.2514 11.3867 15.2131L9.66895 16.9309C10.391 17.2724 11.186 17.4553 12 17.4553C13.4466 17.4553 14.8345 16.8805 15.8574 15.8576C16.8802 14.8348 17.454 13.4467 17.4541 12.0002C17.4541 11.1863 17.2718 10.3912 16.9307 9.66916L15.2139 11.386ZM12 3.81857C13.3901 3.81857 14.7424 4.04457 16.0166 4.46505L13.6719 6.80978C13.1364 6.63729 12.573 6.54611 12 6.54611C10.5534 6.54611 9.1655 7.12084 8.14258 8.14377C7.12002 9.1666 6.54595 10.5539 6.5459 12.0002C6.54592 12.5731 6.63713 13.1367 6.80957 13.6721L3.5 16.9817C1.99886 15.6686 0.780641 13.986 0 12.0002C1.94186 7.09121 6.69824 3.81857 12 3.81857ZM8.7373 11.7444C8.79803 10.9701 9.1325 10.2389 9.68555 9.68576C10.2387 9.13265 10.9698 8.79821 11.7441 8.73752L8.7373 11.7444Z" fill="currentColor"/>
</svg>
